<svg width="78px" height="44px" xmlns="http://www.w3.org/2000/svg" xmlns:xlink="http://www.w3.org/1999/xlink"><defs><rect id="a" x="0" y="0" width="78" height="44" rx="2"/><path id="c" d="M10 17l5-5-5-5z"/><path id="d" d="M10 17l5-5-5-5z"/></defs><g fill="none" fill-rule="evenodd"><mask id="b" fill="#fff"><use xlink:href="#a"/></mask><rect stroke="#DADCE0" x=".5" y=".5" width="77" height="43" rx="2"/><path d="M0 17v31.975h71.533s1.639.92-1.223-8.421c-2.861-9.342-13.698-11.629-13.698-11.629l-3.045-3.277H49.78s-1.71 1.83-3.964 3.936c-2.255 2.106-14.617-.659-14.617-.659s-2.532-2.374-3.38-2.73c-.846-.358-2.688.171-2.688.171l-4.301-7.483h-3.672s-.464 1.515-4.205 2.267c-3.742.751-7.078 0-7.078 0L0 17z" fill="#1892F5" opacity=".5" mask="url(#b)"/><g mask="url(#b)"><use fill="#008207" xlink:href="#c" transform="rotate(-90 15.5 8.5)"/></g><g mask="url(#b)"><use fill="#008207" xlink:href="#d" transform="rotate(-90 35 -4)"/></g></g></svg>
