<svg width="78px" height="44px" xmlns="http://www.w3.org/2000/svg" xmlns:xlink="http://www.w3.org/1999/xlink"><defs><rect id="a" x="0" y="0" width="78" height="44" rx="2"/><path id="c" d="M10 17l5-5-5-5z"/><path id="d" d="M10 17l5-5-5-5z"/></defs><g fill="none" fill-rule="evenodd"><mask id="b" fill="#fff"><use xlink:href="#a"/></mask><rect stroke="#DADCE0" x=".5" y=".5" width="77" height="43" rx="2"/><path d="M0 12l.396 32H72v-5.894s-3.035-3.299-5.664-3.299c-2.63 0-20.497-1.63-20.497-1.63L43.83 30.85l-3.621-.03-3.714 5.614-7.512-7.481-8.855-.433s-6.738-.6-7.843-.6c-1.104 0-3.536-2.893-3.536-2.893s-3.969-2.26-3.969-2.608c0-.348-.954-6.134-.954-6.134" fill="#1892F5" opacity=".5" mask="url(#b)"/><g mask="url(#b)"><use fill="#D90A17" xlink:href="#c" transform="matrix(0 1 1 0 0 0)"/></g><g mask="url(#b)"><use fill="#D90A17" xlink:href="#d" transform="matrix(0 1 1 0 24 13)"/></g></g></svg>
